<?xml version="1.0" encoding="UTF-8"?>
<svg version="1.1" xmlns="http://www.w3.org/2000/svg" width="209" height="222">
<path d="M0 0 C4.68404644 0.86341291 7.02415972 3.7212487 10.125 7.125 C10.69178467 7.73939941 11.25856934 8.35379883 11.8425293 8.98681641 C17.67855597 15.47893534 22.40733246 22.59782253 27 30 C30.47945754 28.46162873 33.09952245 26.38477793 36 23.9375 C40.0705403 20.56539021 44.17319671 17.26832029 48.375 14.0625 C49.80972656 12.96615234 49.80972656 12.96615234 51.2734375 11.84765625 C53.80935054 10.12919369 56.1171051 9.00115078 59 8 C57.56003988 12.03927275 55.58984391 15.26915416 53.1875 18.8125 C43.08112081 34.17073035 34.18710967 50.66472553 28 68 C27.73638672 68.72928711 27.47277344 69.45857422 27.20117188 70.20996094 C25.23477703 75.74666546 23.54106937 81.33094511 22 87 C21.68023193 88.14227051 21.68023193 88.14227051 21.35400391 89.30761719 C10.94457309 128.35330136 18.71225409 173.43805274 28.30737305 211.88330078 C29.05355759 215.24099974 29.55326274 218.59064701 30 222 C14.11142298 215.2669483 2.22103005 188.43270403 -3.9765625 173.296875 C-16.57515094 141.0793113 -16.93462608 109.2563003 -3.2902832 77.15771484 C5.27259562 57.72740438 5.27259562 57.72740438 10 53 C9.83420022 46.33704199 8.45562503 39.8411126 6.93359375 33.37890625 C6.73524429 32.51232895 6.53689484 31.64575165 6.33253479 30.75291443 C5.70660856 28.02141363 5.07266869 25.29186505 4.4375 22.5625 C3.79979305 19.8079235 3.16388371 17.05296568 2.53175354 14.29710388 C2.14016582 12.5912734 1.74522387 10.8862086 1.34654236 9.18202209 C0.6275905 6.06045394 0 3.21484564 0 0 Z " fill="#FFFFFF" transform="translate(73,0)"/>
<path d="M0 0 C21.44676869 8.70342952 38.51804616 25.70129924 52.125 44 C52.59897217 44.63526611 53.07294434 45.27053223 53.5612793 45.92504883 C55.73375566 48.92509701 57.25866002 51.37698389 58 55 C59.29236572 55.12310547 60.58473145 55.24621094 61.91625977 55.37304688 C66.81963482 55.92014657 71.54193708 56.90084635 76.33984375 58.03125 C77.61209557 58.32521667 77.61209557 58.32521667 78.91004944 58.62512207 C80.68449467 59.03622349 82.45837158 59.44978518 84.23168945 59.86572266 C86.95323847 60.5036893 89.67662528 61.13328918 92.40039062 61.76171875 C94.13032108 62.16357744 95.86014288 62.56590424 97.58984375 62.96875 C98.40436508 63.15731567 99.21888641 63.34588135 100.05809021 63.54016113 C105.7677368 64.8838684 105.7677368 64.8838684 108 66 C108 66.99 108 67.98 108 69 C80.49801162 78.18446008 80.49801162 78.18446008 69 78 C69.32613281 78.969375 69.65226562 79.93875 69.98828125 80.9375 C73.7013415 92.22872723 77.35077815 103.99969486 77 116 C74 115 74 115 72.67578125 112.91796875 C72.22589844 112.01691406 71.77601563 111.11585938 71.3125 110.1875 C54.12179197 77.48732678 27.00436077 47.79077177 -6 31 C-5.57592192 27.70646327 -5.13320452 24.41567413 -4.6875 21.125 C-4.56955078 20.2071875 -4.45160156 19.289375 -4.33007812 18.34375 C-3.45952225 12.00431746 -2.01751151 6.07151317 0 0 Z " fill="#FFFFFF" transform="translate(101,77)"/>
<path d="M0 0 C0.81571218 2.56151683 1.62766131 5.12412628 2.4375 7.6875 C2.66759766 8.40873047 2.89769531 9.12996094 3.13476562 9.87304688 C4.2969767 13.56180375 5.34442773 17.17959607 6 21 C5.11175537 21.23702637 4.22351074 21.47405273 3.30834961 21.71826172 C-0.37403628 23.14491111 -2.18068868 24.70496498 -4.93359375 27.5078125 C-5.83013672 28.41273438 -6.72667969 29.31765625 -7.65039062 30.25 C-8.57947006 31.20829167 -9.50850629 32.16662522 -10.4375 33.125 C-11.35337891 34.05054688 -12.26925781 34.97609375 -13.21289062 35.9296875 C-17.79780345 40.5903024 -22.26356985 45.31390032 -26.50439453 50.29052734 C-28.87224967 52.99697881 -31.4267812 55.48954264 -34 58 C-35.485 57.505 -35.485 57.505 -37 57 C-30.0832712 29.44723243 -30.0832712 29.44723243 -24 18 C-25.11072876 17.63032104 -25.11072876 17.63032104 -26.24389648 17.25317383 C-29.64490371 16.11543349 -33.04115567 14.96408155 -36.4375 13.8125 C-38.18450195 13.23145508 -38.18450195 13.23145508 -39.96679688 12.63867188 C-46.72766459 10.33426344 -52.9208314 7.76727401 -59 4 C-59 3.34 -59 2.68 -59 2 C-58.33806641 2.01047363 -57.67613281 2.02094727 -56.99414062 2.03173828 C-43.58817159 2.21395981 -30.35782949 2.02640245 -17.0078125 0.71142578 C-11.30140854 0.15175924 -5.73516824 -0.09392292 0 0 Z " fill="#FFFFFF" transform="translate(59,150)"/>
<path d="M0 0 C3.34225526 2.12829856 6.11102315 4.62237747 8.96484375 7.359375 C9.51205078 7.87242187 10.05925781 8.38546875 10.62304688 8.9140625 C14.33102445 12.40702126 17.9390154 15.99398535 21.52734375 19.609375 C20.12326679 23.82160589 17.16668079 24.88760976 13.46484375 26.921875 C12.75400635 27.31705322 12.04316895 27.71223145 11.31079102 28.11938477 C1.42076531 33.46719574 -12.08895104 40.29929653 -23.47265625 39.609375 C-24.80684218 30.22242396 -25.79682837 21.11842399 -25.47265625 11.609375 C-24.31507812 11.07828125 -23.1575 10.5471875 -21.96484375 10 C-20.42566007 9.28671976 -18.88660433 8.57316342 -17.34765625 7.859375 C-16.58710937 7.51132813 -15.8265625 7.16328125 -15.04296875 6.8046875 C-11.52412256 5.16660393 -8.32285958 3.57617798 -5.23046875 1.21875 C-2.47265625 -0.390625 -2.47265625 -0.390625 0 0 Z " fill="#FFFFFF" transform="translate(119.47265625,127.390625)"/>
<path d="M0 0 C-1.66925294 5.2100925 -3.62782564 10.28464097 -5.625 15.375 C-5.94984375 16.20644531 -6.2746875 17.03789063 -6.609375 17.89453125 C-7.40492732 19.93020924 -8.20183369 21.96534584 -9 24 C-14.63180879 23.36923742 -19.73316015 21.96094928 -25.125 20.25 C-39.81865392 15.72381145 -54.72146919 11.89918658 -70 10 C-70 9.01 -70 8.02 -70 7 C-47.39846619 -0.00858531 -23.68388439 -4.24746851 0 0 Z " fill="#FFFFFF" transform="translate(70,68)"/>
<path d="M0 0 C0.66 0 1.32 0 2 0 C-0.18802107 19.91853666 -9.95615031 38.84089068 -21.375 55.0625 C-21.77944336 55.64016113 -22.18388672 56.21782227 -22.60058594 56.81298828 C-24.7554658 59.74746456 -26.54414176 61.72969594 -30 63 C-30.59167969 62.20335937 -31.18335938 61.40671875 -31.79296875 60.5859375 C-32.59084942 59.51540402 -33.38904679 58.44510652 -34.1875 57.375 C-34.59734131 56.82465088 -35.00718262 56.27430176 -35.42944336 55.70727539 C-37.55583353 52.86774348 -39.71846135 50.09994853 -42.0625 47.4375 C-44 45 -44 45 -44 42 C-42.48828125 40.59765625 -42.48828125 40.59765625 -40.3125 39.0625 C-30.00191565 31.34155079 -20.98343638 22.07225761 -11.875 13 C-11.04500488 12.17467773 -10.21500977 11.34935547 -9.35986328 10.49902344 C-8.57853027 9.7155957 -7.79719727 8.93216797 -6.9921875 8.125 C-6.29464355 7.42632812 -5.59709961 6.72765625 -4.87841797 6.0078125 C-2.95092382 4.0334429 -2.95092382 4.0334429 -1.37548828 1.7421875 C-0.92157715 1.16726562 -0.46766602 0.59234375 0 0 Z " fill="#FFFFFF" transform="translate(191,63)"/>
</svg>
