<?xml version="1.0" encoding="UTF-8"?>
<svg version="1.1" xmlns="http://www.w3.org/2000/svg" width="560" height="222">
<path d="M0 0 C4.68404644 0.86341291 7.02415972 3.7212487 10.125 7.125 C10.69178467 7.73939941 11.25856934 8.35379883 11.8425293 8.98681641 C17.67855597 15.47893534 22.40733246 22.59782253 27 30 C30.47945754 28.46162873 33.09952245 26.38477793 36 23.9375 C40.0705403 20.56539021 44.17319671 17.26832029 48.375 14.0625 C49.80972656 12.96615234 49.80972656 12.96615234 51.2734375 11.84765625 C53.80935054 10.12919369 56.1171051 9.00115078 59 8 C57.56003988 12.03927275 55.58984391 15.26915416 53.1875 18.8125 C43.08112081 34.17073035 34.18710967 50.66472553 28 68 C27.73638672 68.72928711 27.47277344 69.45857422 27.20117188 70.20996094 C25.23477703 75.74666546 23.54106937 81.33094511 22 87 C21.68023193 88.14227051 21.68023193 88.14227051 21.35400391 89.30761719 C10.94457309 128.35330136 18.71225409 173.43805274 28.30737305 211.88330078 C29.05355759 215.24099974 29.55326274 218.59064701 30 222 C14.11142298 215.2669483 2.22103005 188.43270403 -3.9765625 173.296875 C-16.57515094 141.0793113 -16.93462608 109.2563003 -3.2902832 77.15771484 C5.27259562 57.72740438 5.27259562 57.72740438 10 53 C9.83420022 46.33704199 8.45562503 39.8411126 6.93359375 33.37890625 C6.73524429 32.51232895 6.53689484 31.64575165 6.33253479 30.75291443 C5.70660856 28.02141363 5.07266869 25.29186505 4.4375 22.5625 C3.79979305 19.8079235 3.16388371 17.05296568 2.53175354 14.29710388 C2.14016582 12.5912734 1.74522387 10.8862086 1.34654236 9.18202209 C0.6275905 6.06045394 0 3.21484564 0 0 Z " fill="#FFFFFF" transform="translate(73,0)"/>
<path d="M0 0 C21.44676869 8.70342952 38.51804616 25.70129924 52.125 44 C52.59897217 44.63526611 53.07294434 45.27053223 53.5612793 45.92504883 C55.73375566 48.92509701 57.25866002 51.37698389 58 55 C59.29236572 55.12310547 60.58473145 55.24621094 61.91625977 55.37304688 C66.81963482 55.92014657 71.54193708 56.90084635 76.33984375 58.03125 C77.61209557 58.32521667 77.61209557 58.32521667 78.91004944 58.62512207 C80.68449467 59.03622349 82.45837158 59.44978518 84.23168945 59.86572266 C86.95323847 60.5036893 89.67662528 61.13328918 92.40039062 61.76171875 C94.13032108 62.16357744 95.86014288 62.56590424 97.58984375 62.96875 C98.40436508 63.15731567 99.21888641 63.34588135 100.05809021 63.54016113 C105.7677368 64.8838684 105.7677368 64.8838684 108 66 C108 66.99 108 67.98 108 69 C80.49801162 78.18446008 80.49801162 78.18446008 69 78 C69.32613281 78.969375 69.65226562 79.93875 69.98828125 80.9375 C73.7013415 92.22872723 77.35077815 103.99969486 77 116 C74 115 74 115 72.67578125 112.91796875 C72.22589844 112.01691406 71.77601563 111.11585938 71.3125 110.1875 C54.12179197 77.48732678 27.00436077 47.79077177 -6 31 C-5.57592192 27.70646327 -5.13320452 24.41567413 -4.6875 21.125 C-4.56955078 20.2071875 -4.45160156 19.289375 -4.33007812 18.34375 C-3.45952225 12.00431746 -2.01751151 6.07151317 0 0 Z " fill="#FFFFFF" transform="translate(101,77)"/>
<path d="M0 0 C4.95 0 9.9 0 15 0 C19.93416818 11.66505415 24.8483488 23.33833626 29.74810791 35.0178833 C31.03801296 38.09055021 32.33018495 41.16225738 33.62255859 44.23388672 C35.82891615 49.48074183 38.02508374 54.73177041 40.2149353 59.98553467 C41.07055914 62.03424466 41.92929752 64.08165672 42.79116821 66.12774658 C44.00457203 69.01013415 45.20669162 71.89698448 46.40625 74.78515625 C46.77111008 75.64503647 47.13597015 76.50491669 47.5118866 77.39085388 C48.00583672 78.58968956 48.00583672 78.58968956 48.50976562 79.81274414 C48.94367615 80.84994347 48.94367615 80.84994347 49.38635254 81.90809631 C50 84 50 84 50 89 C45.38 89 40.76 89 36 89 C34.66249352 85.7099729 33.3298307 82.41812805 32 79.125 C31.6184375 78.18785156 31.236875 77.25070313 30.84375 76.28515625 C30.4828125 75.38925781 30.121875 74.49335938 29.75 73.5703125 C29.24726562 72.32918701 29.24726562 72.32918701 28.734375 71.06298828 C28 69 28 69 28 67 C14.14 67 0.28 67 -14 67 C-14.33 68.65 -14.66 70.3 -15 72 C-15.50344088 73.41701459 -16.04677003 74.82048862 -16.62890625 76.20703125 C-16.94150391 76.95791016 -17.25410156 77.70878906 -17.57617188 78.48242188 C-17.90166016 79.25134766 -18.22714844 80.02027344 -18.5625 80.8125 C-18.89185547 81.60076172 -19.22121094 82.38902344 -19.56054688 83.20117188 C-20.36958906 85.13583796 -21.18423852 87.06815753 -22 89 C-26.62 89 -31.24 89 -36 89 C-35.31829211 85.59146055 -34.8015978 83.20180841 -33.50390625 80.13574219 C-33.04487411 79.04132057 -33.04487411 79.04132057 -32.5765686 77.92478943 C-32.24192596 77.14007767 -31.90728333 76.35536591 -31.5625 75.546875 C-31.03382828 74.29107384 -31.03382828 74.29107384 -30.49447632 73.00990295 C-29.33376602 70.25484594 -28.16679956 67.50248294 -27 64.75 C-25.78250215 61.86349361 -24.56676457 58.97625007 -23.35116577 56.08894348 C-22.5123364 54.09669555 -21.67299432 52.10466342 -20.8331604 50.11283875 C-16.30330219 39.36420515 -11.83610162 28.58981004 -7.375 17.8125 C-6.62764098 16.00812277 -5.88024612 14.20376039 -5.1328125 12.39941406 C-3.42106626 8.26661042 -1.71022766 4.13343227 0 0 Z M7 15 C2.93096846 23.56585311 -0.49307864 32.31160094 -3.8125 41.1875 C-5.524375 45.745625 -7.23625 50.30375 -9 55 C1.56 55 12.12 55 23 55 C21.17110912 48.90369708 19.43993599 43.29231481 17.08203125 37.4609375 C16.81992355 36.80920563 16.55781586 36.15747375 16.2877655 35.48599243 C15.46678716 33.44730698 14.63978502 31.41113316 13.8125 29.375 C13.24764205 27.97542373 12.68318594 26.57568521 12.11914062 25.17578125 C10.750716 21.78197327 9.37688565 18.39038557 8 15 C7.67 15 7.34 15 7 15 Z " fill="#FFFFFF" transform="translate(510,67)"/>
<path d="M0 0 C1.93166016 0.01740234 1.93166016 0.01740234 3.90234375 0.03515625 C5.19269531 0.04417969 6.48304688 0.05320312 7.8125 0.0625 C8.81152344 0.07410156 9.81054688 0.08570312 10.83984375 0.09765625 C19.20475762 19.33925551 27.26001156 38.7028142 35.2512207 58.10205078 C35.64679672 59.06233185 36.04237274 60.02261292 36.44993591 61.01199341 C37.21781474 62.87743998 37.98489648 64.74321488 38.75111389 66.60934448 C40.31918409 70.42557782 41.8916131 74.23864256 43.51611328 78.03125 C43.9748584 79.10503906 44.43360352 80.17882812 44.90625 81.28515625 C45.2885376 82.16558594 45.6708252 83.04601562 46.06469727 83.953125 C46.83984375 86.09765625 46.83984375 86.09765625 46.83984375 89.09765625 C42.21984375 89.09765625 37.59984375 89.09765625 32.83984375 89.09765625 C29.18330484 82.19086053 26.70204592 75.53938189 23.83984375 68.09765625 C9.97984375 67.76765625 -3.88015625 67.43765625 -18.16015625 67.09765625 C-18.49015625 69.07765625 -18.82015625 71.05765625 -19.16015625 73.09765625 C-19.80859375 75.13989258 -19.80859375 75.13989258 -20.53515625 76.9296875 C-20.798125 77.58259766 -21.06109375 78.23550781 -21.33203125 78.90820312 C-21.74195313 79.89916992 -21.74195313 79.89916992 -22.16015625 80.91015625 C-22.4334375 81.59013672 -22.70671875 82.27011719 -22.98828125 82.97070312 C-25.01462054 87.95212054 -25.01462054 87.95212054 -26.16015625 89.09765625 C-28.5132918 89.17037366 -30.86849293 89.18136493 -33.22265625 89.16015625 C-35.15818359 89.14662109 -35.15818359 89.14662109 -37.1328125 89.1328125 C-38.13183594 89.12121094 -39.13085938 89.10960937 -40.16015625 89.09765625 C-37.51398921 80.58060249 -34.05291315 72.43323897 -30.59765625 64.22265625 C-29.94552568 62.6670261 -29.29367663 61.11127791 -28.64208984 59.55541992 C-27.2402236 56.20902342 -25.83656691 52.86338428 -24.43212891 49.51806641 C-22.01251542 43.75055673 -19.60779429 37.97687737 -17.203125 32.203125 C-15.96865913 29.24228362 -14.73383802 26.28159075 -13.49880981 23.32098389 C-12.6895605 21.38007971 -11.88102794 19.43887654 -11.07321167 17.49737549 C-9.94047012 14.77591307 -8.80460795 12.05577388 -7.66796875 9.3359375 C-7.32698654 8.51473923 -6.98600433 7.69354095 -6.63468933 6.84745789 C-3.81610094 0.11792648 -3.81610094 0.11792648 0 0 Z M2.83984375 14.09765625 C1.36419096 17.84699919 -0.11078771 21.59660661 -1.58520508 25.34643555 C-2.32664913 27.23174046 -3.06859076 29.11684967 -3.81054688 31.00195312 C-4.29072266 32.22333984 -4.77089844 33.44472656 -5.265625 34.703125 C-5.70028076 35.80809326 -6.13493652 36.91306152 -6.58276367 38.05151367 C-8.79493548 43.72591754 -10.97384211 49.4132395 -13.16015625 55.09765625 C-2.60015625 55.09765625 7.95984375 55.09765625 18.83984375 55.09765625 C17.01975121 49.03068111 15.23115264 43.19690587 12.921875 37.33984375 C12.52871346 36.32895187 12.52871346 36.32895187 12.12760925 35.29763794 C11.30613205 33.18788039 10.47935828 31.08024844 9.65234375 28.97265625 C9.08753518 27.5248782 8.52307938 26.07696247 7.95898438 24.62890625 C6.58999571 21.11689054 5.2162596 17.60676741 3.83984375 14.09765625 C3.50984375 14.09765625 3.17984375 14.09765625 2.83984375 14.09765625 Z " fill="#FFFFFF" transform="translate(358.16015625,66.90234375)"/>
<path d="M0 0 C1.27617187 -0.00483398 1.27617187 -0.00483398 2.578125 -0.00976562 C8.0320533 0.03624144 12.76275131 0.79103076 18 2.3125 C17.67 6.9325 17.34 11.5525 17 16.3125 C15.618125 15.8175 14.23625 15.3225 12.8125 14.8125 C5.38973793 12.5951742 -2.26688998 12.11031203 -9.6875 14.5 C-12.47540506 16.68511477 -13.29015761 17.84215942 -14 21.3125 C-14.12566762 24.76835943 -14.03836599 27.13975723 -11.671875 29.8125 C-7.33108599 33.2851312 -2.41178455 35.70409168 2.5 38.25 C10.59907391 42.46745796 17.95445696 46.72704161 21.375 55.66015625 C23.23895372 63.57030986 23.18982419 72.1435009 19.31640625 79.41796875 C14.90917559 85.7607191 8.52001702 89.72414318 1 91.3125 C-2.35618992 91.62637262 -5.69270435 91.72093671 -9.0625 91.75 C-9.90127686 91.76015137 -10.74005371 91.77030273 -11.60424805 91.78076172 C-17.53517837 91.69829896 -22.49409905 90.49145221 -28 88.3125 C-28.0772418 83.75523372 -27.99296412 79.77692924 -27 75.3125 C-26.27296875 75.5290625 -25.5459375 75.745625 -24.796875 75.96875 C-16.34494611 78.30928415 -8.03243354 79.93006792 0.5 77.1875 C3.70535485 74.78348386 5.30606034 72.97140967 7 69.3125 C7.31405303 64.96937645 6.77760856 61.65135772 4.58203125 57.87109375 C0.15281739 53.48208455 -5.54096871 51.26628991 -11.11523438 48.59375 C-19.09689303 44.62277555 -25.83242944 40.00912741 -29 31.3125 C-29.89326363 24.37562385 -30.06040926 17.11038991 -26.32421875 10.98828125 C-19.34384326 2.15470872 -10.89218551 -0.20629139 0 0 Z " fill="#FFFFFF" transform="translate(443,65.6875)"/>
<path d="M0 0 C22.11 0 44.22 0 67 0 C67 3.96 67 7.92 67 12 C58.09 12 49.18 12 40 12 C40 37.41 40 62.82 40 89 C35.38 89 30.76 89 26 89 C26 63.59 26 38.18 26 12 C17.42 12 8.84 12 0 12 C0 8.04 0 4.08 0 0 Z " fill="#FFFFFF" transform="translate(254,67)"/>
<path d="M0 0 C0.81571218 2.56151683 1.62766131 5.12412628 2.4375 7.6875 C2.66759766 8.40873047 2.89769531 9.12996094 3.13476562 9.87304688 C4.2969767 13.56180375 5.34442773 17.17959607 6 21 C5.11175537 21.23702637 4.22351074 21.47405273 3.30834961 21.71826172 C-0.37403628 23.14491111 -2.18068868 24.70496498 -4.93359375 27.5078125 C-5.83013672 28.41273438 -6.72667969 29.31765625 -7.65039062 30.25 C-8.57947006 31.20829167 -9.50850629 32.16662522 -10.4375 33.125 C-11.35337891 34.05054688 -12.26925781 34.97609375 -13.21289062 35.9296875 C-17.79780345 40.5903024 -22.26356985 45.31390032 -26.50439453 50.29052734 C-28.87224967 52.99697881 -31.4267812 55.48954264 -34 58 C-35.485 57.505 -35.485 57.505 -37 57 C-30.0832712 29.44723243 -30.0832712 29.44723243 -24 18 C-25.11072876 17.63032104 -25.11072876 17.63032104 -26.24389648 17.25317383 C-29.64490371 16.11543349 -33.04115567 14.96408155 -36.4375 13.8125 C-38.18450195 13.23145508 -38.18450195 13.23145508 -39.96679688 12.63867188 C-46.72766459 10.33426344 -52.9208314 7.76727401 -59 4 C-59 3.34 -59 2.68 -59 2 C-58.33806641 2.01047363 -57.67613281 2.02094727 -56.99414062 2.03173828 C-43.58817159 2.21395981 -30.35782949 2.02640245 -17.0078125 0.71142578 C-11.30140854 0.15175924 -5.73516824 -0.09392292 0 0 Z " fill="#FFFFFF" transform="translate(59,150)"/>
<path d="M0 0 C3.34225526 2.12829856 6.11102315 4.62237747 8.96484375 7.359375 C9.51205078 7.87242187 10.05925781 8.38546875 10.62304688 8.9140625 C14.33102445 12.40702126 17.9390154 15.99398535 21.52734375 19.609375 C20.12326679 23.82160589 17.16668079 24.88760976 13.46484375 26.921875 C12.75400635 27.31705322 12.04316895 27.71223145 11.31079102 28.11938477 C1.42076531 33.46719574 -12.08895104 40.29929653 -23.47265625 39.609375 C-24.80684218 30.22242396 -25.79682837 21.11842399 -25.47265625 11.609375 C-24.31507812 11.07828125 -23.1575 10.5471875 -21.96484375 10 C-20.42566007 9.28671976 -18.88660433 8.57316342 -17.34765625 7.859375 C-16.58710937 7.51132813 -15.8265625 7.16328125 -15.04296875 6.8046875 C-11.52412256 5.16660393 -8.32285958 3.57617798 -5.23046875 1.21875 C-2.47265625 -0.390625 -2.47265625 -0.390625 0 0 Z " fill="#FFFFFF" transform="translate(119.47265625,127.390625)"/>
<path d="M0 0 C-1.66925294 5.2100925 -3.62782564 10.28464097 -5.625 15.375 C-5.94984375 16.20644531 -6.2746875 17.03789063 -6.609375 17.89453125 C-7.40492732 19.93020924 -8.20183369 21.96534584 -9 24 C-14.63180879 23.36923742 -19.73316015 21.96094928 -25.125 20.25 C-39.81865392 15.72381145 -54.72146919 11.89918658 -70 10 C-70 9.01 -70 8.02 -70 7 C-47.39846619 -0.00858531 -23.68388439 -4.24746851 0 0 Z " fill="#FFFFFF" transform="translate(70,68)"/>
<path d="M0 0 C0.66 0 1.32 0 2 0 C-0.18802107 19.91853666 -9.95615031 38.84089068 -21.375 55.0625 C-21.77944336 55.64016113 -22.18388672 56.21782227 -22.60058594 56.81298828 C-24.7554658 59.74746456 -26.54414176 61.72969594 -30 63 C-30.59167969 62.20335937 -31.18335938 61.40671875 -31.79296875 60.5859375 C-32.59084942 59.51540402 -33.38904679 58.44510652 -34.1875 57.375 C-34.59734131 56.82465088 -35.00718262 56.27430176 -35.42944336 55.70727539 C-37.55583353 52.86774348 -39.71846135 50.09994853 -42.0625 47.4375 C-44 45 -44 45 -44 42 C-42.48828125 40.59765625 -42.48828125 40.59765625 -40.3125 39.0625 C-30.00191565 31.34155079 -20.98343638 22.07225761 -11.875 13 C-11.04500488 12.17467773 -10.21500977 11.34935547 -9.35986328 10.49902344 C-8.57853027 9.7155957 -7.79719727 8.93216797 -6.9921875 8.125 C-6.29464355 7.42632812 -5.59709961 6.72765625 -4.87841797 6.0078125 C-2.95092382 4.0334429 -2.95092382 4.0334429 -1.37548828 1.7421875 C-0.92157715 1.16726562 -0.46766602 0.59234375 0 0 Z " fill="#FFFFFF" transform="translate(191,63)"/>
</svg>
